<svg width="84" height="100" viewBox="0 0 84 100" fill="none" xmlns="http://www.w3.org/2000/svg">
<path d="M75.3333 16.6667H8.66659C4.08325 16.6667 0.333252 20.4167 0.333252 25V75C0.333252 79.5833 4.08325 83.3333 8.66659 83.3333H75.3333C79.9166 83.3333 83.6666 79.5833 83.6666 75V25C83.6666 20.4167 79.9166 16.6667 75.3333 16.6667ZM75.3333 75H8.66659V25H75.3333V75ZM8.66659 0H75.3333V8.33333H8.66659V0ZM8.66659 91.6667H75.3333V100H8.66659V91.6667ZM41.9999 50C47.7499 50 52.4166 45.3333 52.4166 39.5833C52.4166 33.8333 47.7499 29.1667 41.9999 29.1667C36.2499 29.1667 31.5833 33.8333 31.5833 39.5833C31.5833 45.3333 36.2499 50 41.9999 50ZM41.9999 35.4167C44.2916 35.4167 46.1666 37.2917 46.1666 39.5833C46.1666 41.875 44.2916 43.75 41.9999 43.75C39.7083 43.75 37.8333 41.875 37.8333 39.5833C37.8333 37.2917 39.7083 35.4167 41.9999 35.4167ZM62.8333 66.625C62.8333 57.9167 49.0416 54.1667 41.9999 54.1667C34.9583 54.1667 21.1666 57.9167 21.1666 66.625V70.8333H62.8333V66.625ZM28.7083 64.5833C31.2499 62.4167 37.1666 60.4167 41.9999 60.4167C46.8749 60.4167 52.7916 62.4167 55.3333 64.5833H28.7083Z" fill="#C72C35"/>
</svg>
