<svg width="92" height="68" viewBox="0 0 92 68" fill="none" xmlns="http://www.w3.org/2000/svg">
<path d="M58.4998 34C67.7082 34 75.1665 26.5417 75.1665 17.3334C75.1665 8.12502 67.7082 0.666687 58.4998 0.666687C49.2915 0.666687 41.8332 8.12502 41.8332 17.3334C41.8332 26.5417 49.2915 34 58.4998 34ZM58.4998 9.00002C63.0832 9.00002 66.8332 12.75 66.8332 17.3334C66.8332 21.9167 63.0832 25.6667 58.4998 25.6667C53.9165 25.6667 50.1665 21.9167 50.1665 17.3334C50.1665 12.75 53.9165 9.00002 58.4998 9.00002ZM58.4998 42.3333C47.3748 42.3333 25.1665 47.9167 25.1665 59V67.3333H91.8332V59C91.8332 47.9167 69.6248 42.3333 58.4998 42.3333ZM33.4998 59C34.4165 56 47.2915 50.6667 58.4998 50.6667C69.7498 50.6667 82.6665 56.0417 83.4998 59H33.4998ZM20.9998 46.5V34H33.4998V25.6667H20.9998V13.1667H12.6665V25.6667H0.166504V34H12.6665V46.5H20.9998Z" fill="#C72C35"/>
</svg>
