<svg width="100" height="60" viewBox="0 0 100 60" fill="none" xmlns="http://www.w3.org/2000/svg">
<path d="M20.8333 42.5V30H33.3333V21.6666H20.8333V9.16665H12.5V21.6666H0V30H12.5V42.5H20.8333ZM50 37.2916C40.25 37.2916 20.8333 42.1666 20.8333 51.875V59.1666H79.1667V51.875C79.1667 42.1666 59.75 37.2916 50 37.2916ZM30.5833 50.8333C34.0833 48.4166 42.5417 45.625 50 45.625C57.4583 45.625 65.9167 48.4166 69.4167 50.8333H30.5833ZM50 30C58.0417 30 64.5833 23.4583 64.5833 15.4166C64.5833 7.37498 58.0417 0.833313 50 0.833313C41.9583 0.833313 35.4167 7.37498 35.4167 15.4166C35.4167 23.4583 41.9583 30 50 30ZM50 9.16665C53.4583 9.16665 56.25 11.9583 56.25 15.4166C56.25 18.875 53.4583 21.6666 50 21.6666C46.5417 21.6666 43.75 18.875 43.75 15.4166C43.75 11.9583 46.5417 9.16665 50 9.16665ZM70.8333 30C78.875 30 85.4167 23.4583 85.4167 15.4166C85.4167 7.37498 78.875 0.833313 70.8333 0.833313C69.8333 0.833313 68.8333 0.916647 67.875 1.12498C71.0417 5.04165 72.9167 9.99998 72.9167 15.4166C72.9167 20.8333 70.9583 25.75 67.7917 29.6666C68.7917 29.875 69.7917 30 70.8333 30ZM80.5 38.4167C84.6667 41.7917 87.5 46.2083 87.5 51.875V59.1666H100V51.875C100 44.8333 89.8333 40.375 80.5 38.4167Z" fill="#C72C35"/>
</svg>
